<?xml version="1.0" encoding="UTF-8" standalone="no"?>
<!-- Generator: Adobe Illustrator 21.0.2, SVG Export Plug-In . SVG Version: 6.00 Build 0)  -->

<svg
   xmlns:dc="http://purl.org/dc/elements/1.1/"
   xmlns:cc="http://creativecommons.org/ns#"
   xmlns:rdf="http://www.w3.org/1999/02/22-rdf-syntax-ns#"
   xmlns:svg="http://www.w3.org/2000/svg"
   xmlns="http://www.w3.org/2000/svg"
   xmlns:xlink="http://www.w3.org/1999/xlink"
   xmlns:sodipodi="http://sodipodi.sourceforge.net/DTD/sodipodi-0.dtd"
   xmlns:inkscape="http://www.inkscape.org/namespaces/inkscape"
   version="1.1"
   id="Layer_1"
   x="0px"
   y="0px"
   viewBox="0 0 246.3 56.700001"
   xml:space="preserve"
   sodipodi:docname="Qt_Webinars_RGB_white.svg"
   width="246.3"
   height="56.700001"
   inkscape:version="0.92.2 2405546, 2018-03-11"><metadata
   id="metadata21"><rdf:RDF><cc:Work
       rdf:about=""><dc:format>image/svg+xml</dc:format><dc:type
         rdf:resource="http://purl.org/dc/dcmitype/StillImage" /><dc:title></dc:title></cc:Work></rdf:RDF></metadata><defs
   id="defs19" /><sodipodi:namedview
   pagecolor="#ffffff"
   bordercolor="#666666"
   borderopacity="1"
   objecttolerance="10"
   gridtolerance="10"
   guidetolerance="10"
   inkscape:pageopacity="0"
   inkscape:pageshadow="2"
   inkscape:window-width="879"
   inkscape:window-height="380"
   id="namedview17"
   showgrid="false"
   fit-margin-top="0"
   fit-margin-left="0"
   fit-margin-right="0"
   fit-margin-bottom="0"
   inkscape:zoom="0.417193"
   inkscape:cx="-227.5149"
   inkscape:cy="-11.314337"
   inkscape:window-x="1031"
   inkscape:window-y="28"
   inkscape:window-maximized="0"
   inkscape:current-layer="Layer_1" />
<style
   type="text/css"
   id="style2">
	.st0{fill:#707381;}
	.st1{clip-path:url(#SVGID_2_);fill:#FFFFFF;}
</style>
<path
   class="st0"
   d="M 123.2,28.300003 Z"
   id="path4"
   inkscape:connector-curvature="0"
   style="fill:#707381" />
<g
   id="g14"
   transform="translate(-76.800003,-171.7)">
	<defs
   id="defs7">
		<rect
   id="SVGID_1_"
   x="76.800003"
   y="171.7"
   width="246.3"
   height="56.700001" />
	</defs>
	<clipPath
   id="SVGID_2_">
		<use
   xlink:href="#SVGID_1_"
   style="overflow:visible"
   id="use9"
   x="0"
   y="0"
   width="100%"
   height="100%" />
	</clipPath>
	<path
   class="st1"
   d="m 111.8,208.5 c 1.1,-1.9 1.6,-5 1.6,-9.5 0,-4.5 -0.6,-7.7 -1.7,-9.7 -1.1,-2 -3.2,-3 -6.3,-3 -3.1,0 -5.2,1 -6.3,3 -1.1,2 -1.7,5.2 -1.7,9.7 0,4.4 0.6,7.6 1.7,9.5 1.1,1.9 3.2,2.9 6.3,2.9 3.1,0 5.3,-1 6.4,-2.9 m 19.3,-13.4 v 10.7 c 0,2 0.1,3.3 0.4,3.9 0.3,0.7 1,1 2.2,1 l 4,-0.1 0.2,4.2 c -2.2,0.4 -3.8,0.6 -5,0.6 -2.8,0 -4.7,-0.6 -5.7,-1.9 -1,-1.3 -1.5,-3.7 -1.5,-7.2 V 195 H 122 v -4.5 h 3.7 v -7.1 h 5.3 v 7.1 h 6.7 v 4.5 h -6.6 z m -12,3.9 c 0,3.9 -0.4,7.1 -1.2,9.5 -0.8,2.4 -2.2,4.2 -4.1,5.5 l 4.1,6.6 -5,2.3 -4.3,-7.1 c -0.6,0.2 -1.6,0.3 -3,0.3 -5.1,0 -8.6,-1.4 -10.6,-4.1 -2,-2.7 -3,-7 -3,-12.9 0,-5.9 1,-10.3 3,-13.1 2,-2.9 5.5,-4.3 10.6,-4.3 5,0 8.5,1.4 10.5,4.3 1.9,2.7 3,7.1 3,13 m 24,29.3 10.7,-10.7 v -46 H 87.5 l -10.7,10.7 v 46 z m 71.5,-26.5 h 6.2 c 0,-2.9 -0.9,-3.9 -3,-3.9 -2.2,0 -3.2,1 -3.2,3.9 m 21.8,0.9 c 0,-3.3 -0.9,-4.6 -2.8,-4.6 -1.6,0 -3.3,0.6 -3.3,0.6 v 9 c 0,0 1.6,0.1 2.2,0.1 3.2,-0.1 3.9,-1.5 3.9,-5.1 m 33.7,5.3 c 1.7,0 3.6,-0.6 3.6,-0.6 v -3.9 l -3.4,0.3 c -1.4,0.1 -2,0.8 -2,2.1 0,1.3 0.5,2.1 1.8,2.1 m 23.9,-8.3 c 0,1 0.6,1.2 3.5,1.7 3.5,0.6 4.8,1.5 4.8,4.4 0,3.4 -2.2,4.7 -5.8,4.7 -2,0 -5.4,-0.6 -5.4,-0.6 l 0.1,-2.7 c 0,0 3.5,0.5 5,0.5 2.1,0 2.9,-0.4 2.9,-1.7 0,-1 -0.5,-1.4 -3.4,-1.8 -3.2,-0.5 -4.9,-1.2 -4.9,-4.4 0,-3.3 2.6,-4.6 5.5,-4.6 2.1,0 5.5,0.6 5.5,0.6 l -0.1,2.7 c 0,0 -3.5,-0.5 -5.2,-0.5 -1.7,0.1 -2.5,0.5 -2.5,1.7 m -4.9,-1.3 c -2.7,0.5 -5,1.6 -5,1.6 v 10.3 h -3.2 v -14.7 h 3.2 v 1.8 c 0,0 2.5,-1.6 5,-2.1 z m -10.9,9.7 -0.1,2.4 c -1.8,0 -2.8,-0.2 -3.9,-1.1 0,0 -2.4,1.1 -4.7,1.1 -2.9,0 -4.4,-1.6 -4.4,-4.7 0,-3.1 1.7,-4.2 4.9,-4.4 l 3.8,-0.3 V 200 c 0,-1.6 -0.7,-2.1 -2.1,-2.1 -2,0 -5.5,0.3 -5.5,0.3 l -0.1,-2.3 c 0,0 3.2,-0.8 5.9,-0.8 3.6,0 5.1,1.5 5.1,4.9 v 6.7 c -0.1,1 0.3,1.3 1.1,1.4 m -15.9,2.1 h -3.2 v -7.8 c 0,-2.9 -0.4,-4.4 -2.6,-4.4 -1.7,0 -3.3,0.8 -3.3,0.8 v 11.4 H 250 v -14.7 h 3.2 v 0.9 c 0,0 2.1,-1.2 4.1,-1.2 4.1,0 5.1,2.3 5.1,7.2 v 7.8 z m -16.2,0 h -3.2 v -14.7 h 3.2 z m 0,-17.2 h -3.2 v -3.4 h 3.2 z m -6.5,9.7 c 0,6.1 -1.9,7.9 -7.2,7.9 -1.6,0 -5.4,-0.4 -5.4,-0.4 v -20.8 h 3.2 v 6.7 c 0,0 2,-0.9 3.7,-0.9 4,0 5.7,2 5.7,7.5 m -15.6,-0.8 -0.2,2.3 h -9.1 c 0,2.4 0.9,3.5 3.4,3.5 2.3,0 5.4,-0.3 5.4,-0.3 l 0.1,2.4 c 0,0 -3.4,0.7 -5.9,0.7 -4.4,0 -6.1,-2.4 -6.1,-7.5 0,-5.4 2.3,-7.8 6.4,-7.8 3.9,0 6,2.2 6,6.7 m -13.9,-11.8 -4,20.2 h -5.3 l -3.5,-16.2 -3.4,16.2 h -5.3 l -3.9,-20.2 h 3.4 l 2.9,17.3 h 0.6 l 3.8,-17.3 h 3.8 l 3.8,17.3 h 0.6 l 2.9,-17.3 z m 113.1,27.6 v -46 H 175.4 l -10.7,10.7 v 46 h 147.7 z"
   clip-path="url(#SVGID_2_)"
   id="path12"
   inkscape:connector-curvature="0"
   style="fill:#ffffff" />
</g>
</svg>